<svg width="3829" height="453" viewBox="0 0 3829 453" fill="none" xmlns="http://www.w3.org/2000/svg">
<path d="M939.03 0H1052.49L1139.07 233.779C1147.43 258.565 1161.76 303.051 1172.22 337.683C1182.66 303.051 1197 258.565 1205.06 233.779L1290.15 0H1404.2V444.87H1326.58V217.957C1326.58 186.607 1328.07 137.344 1329.27 91.6655C1313.44 141.826 1298.21 190.787 1288.66 217.957L1203.86 444.87H1139.37L1053.98 217.957C1044.72 191.979 1029.8 146.006 1014.27 97.9355C1015.17 141.826 1016.66 188.101 1016.66 217.957V444.87H939.03V0Z" fill="black"></path>
<path d="M1436.3 326.634V129.584H1511.54V314.697C1511.54 360.972 1534.83 385.154 1575.14 385.154C1614.84 385.154 1644.1 361.568 1644.1 307.824V129.584H1719.65V444.867H1645.6V396.502C1624.1 432.025 1592.16 451.137 1548.57 451.137C1482.58 451.137 1436.3 407.548 1436.3 326.634Z" fill="black"></path>
<path d="M1741.01 347.54H1815.36C1818.64 378.294 1840.74 395.911 1878.35 395.911C1914.78 395.911 1936.87 380.082 1936.87 357.695C1936.87 338.584 1920.45 327.537 1893.88 321.864L1840.14 310.817C1779.83 298.277 1748.18 267.523 1748.18 219.755C1748.18 161.831 1798.04 122.717 1875.07 122.717C1951.5 122.717 2003.75 163.023 2005.54 227.813H1934.78C1934.19 199.752 1911.2 179.147 1876.86 179.147C1843.72 179.147 1823.42 195.867 1823.42 217.363C1823.42 236.173 1838.94 247.816 1865.22 253.49L1921.95 265.132C1984.35 278.275 2013.3 305.74 2013.3 352.021C2013.3 413.529 1957.47 452.342 1879.55 452.342C1802.82 452.342 1745.79 415.318 1741.01 347.54Z" fill="black"></path>
<path d="M2034.07 0H2109.3V257.372H2110.2L2232.92 129.587H2323.38L2195.3 265.732L2331.15 444.87H2241.28L2137.97 309.917L2109.3 339.479V444.87H2034.07V0Z" fill="black"></path>
<path d="M2524.57 254.984C2519.8 209.902 2490.54 182.129 2446.94 182.129C2403.35 182.129 2374.39 209.902 2369.32 254.984H2524.57ZM2294.97 287.52C2294.97 191.688 2357.37 122.416 2445.75 122.416C2536.52 122.416 2596.83 189.591 2596.83 286.334V306.933H2368.72C2370.51 358.285 2399.77 392.623 2450.53 392.623C2488.44 392.623 2513.83 374.409 2522.48 347.534H2592.95C2581 409.343 2522.48 452.034 2448.74 452.034C2354.09 452.034 2294.97 383.064 2294.97 287.52Z" fill="black"></path>
<path d="M2757.02 190.194H2692.52V354.406C2692.52 376.794 2700.29 384.263 2724.77 384.263H2757.02V444.873H2711.63C2647.14 444.873 2617.29 419.491 2617.29 365.453V43.5918H2692.52V129.583H2757.02V190.194Z" fill="black"></path>
<path d="M2983.81 254.984C2979.03 209.902 2949.77 182.129 2906.17 182.129C2862.59 182.129 2833.63 209.902 2828.55 254.984H2983.81ZM2754.21 287.52C2754.21 191.688 2816.61 122.416 2904.98 122.416C2995.75 122.416 3056.06 189.591 3056.06 286.334V306.933H2827.95C2829.74 358.285 2859 392.623 2909.76 392.623C2947.67 392.623 2973.06 374.409 2981.72 347.534H3052.18C3040.24 409.343 2981.72 452.034 2907.97 452.034C2813.32 452.034 2754.21 383.064 2754.21 287.52Z" fill="black"></path>
<path d="M3291.48 254.984C3286.71 209.902 3257.45 182.129 3213.85 182.129C3170.26 182.129 3141.3 209.902 3136.23 254.984H3291.48ZM3061.88 287.52C3061.88 191.688 3124.28 122.416 3212.66 122.416C3303.43 122.416 3363.74 189.591 3363.74 286.334V306.933H3135.63C3137.42 358.285 3166.68 392.623 3217.44 392.623C3255.35 392.623 3280.74 374.409 3289.39 347.534H3359.86C3347.91 409.343 3289.39 452.034 3215.65 452.034C3121 452.034 3061.88 383.064 3061.88 287.52Z" fill="black"></path>
<path d="M3384.2 129.578H3456.75V181.828H3457.65C3469.29 145.695 3493.47 126.59 3534.08 126.59C3544.23 126.59 3552.59 127.186 3558.56 127.782V194.662C3552.9 193.765 3537.96 192.271 3523.04 192.271C3487.21 192.271 3459.43 217.056 3459.43 266.319V444.86H3384.2V129.578Z" fill="black"></path>
<path d="M3556.36 347.54H3630.7C3633.98 378.294 3656.08 395.911 3693.69 395.911C3730.12 395.911 3752.21 380.082 3752.21 357.695C3752.21 338.584 3735.79 327.537 3709.22 321.864L3655.48 310.817C3595.17 298.277 3563.52 267.523 3563.52 219.755C3563.52 161.831 3613.38 122.717 3690.41 122.717C3766.84 122.717 3819.09 163.023 3820.88 227.813H3750.12C3749.53 199.752 3726.54 179.147 3692.2 179.147C3659.06 179.147 3638.76 195.867 3638.76 217.363C3638.76 236.173 3654.28 247.816 3680.56 253.49L3737.29 265.132C3799.69 278.275 3828.65 305.74 3828.65 352.021C3828.65 413.529 3772.81 452.342 3694.89 452.342C3618.16 452.342 3561.13 415.318 3556.36 347.54Z" fill="black"></path>
<path d="M338.911 183.629H861.412V261.261H338.911V183.629Z" fill="url(#paint0_linear_530_34)"></path>
<path d="M261.251 0.00585938V444.869H183.612V300.042C183.612 278.606 166.263 261.257 144.827 261.257H0V183.618H144.827C166.263 183.618 183.612 166.269 183.612 144.833V0.00585938H261.251Z" fill="black"></path>
<defs>
<linearGradient id="paint0_linear_530_34" x1="338.885" y1="222.438" x2="861.412" y2="222.445" gradientUnits="userSpaceOnUse">
<stop stop-color="#FFD81D"></stop>
<stop offset="0.33" stop-color="#FC2511"></stop>
<stop offset="0.49" stop-color="#6A00D0"></stop>
<stop offset="0.58" stop-color="#2431F3"></stop>
<stop offset="0.67" stop-color="#0D41FF"></stop>
<stop offset="0.82" stop-color="#009A88"></stop>
<stop offset="1" stop-color="#30E047"></stop>
</linearGradient>
</defs>
</svg>