<svg width="2890" height="453" viewBox="0 0 2890 453" fill="none" xmlns="http://www.w3.org/2000/svg">
<path d="M0 0H113.457L200.044 233.779C208.404 258.565 222.733 303.051 233.19 337.683C243.633 303.051 257.968 258.565 266.027 233.779L351.121 0H465.174V444.87H387.549V217.957C387.549 186.607 389.036 137.344 390.235 91.6655C374.412 141.826 359.18 190.787 349.627 217.957L264.835 444.87H200.339L114.95 217.957C105.693 191.979 90.7679 146.006 75.2402 97.9355C76.1378 141.826 77.6317 188.101 77.6317 217.957V444.87H0V0Z" fill="white"></path>
<path d="M497.271 326.634V129.584H572.505V314.697C572.505 360.972 595.796 385.154 636.109 385.154C675.813 385.154 705.073 361.568 705.073 307.824V129.584H780.614V444.867H706.567V396.502C685.07 432.025 653.124 451.137 609.535 451.137C543.546 451.137 497.271 407.548 497.271 326.634Z" fill="white"></path>
<path d="M801.984 347.54H876.326C879.609 378.294 901.708 395.911 939.321 395.911C975.749 395.911 997.841 380.082 997.841 357.695C997.841 338.584 981.423 327.537 954.849 321.864L901.105 310.817C840.796 298.277 809.145 267.523 809.145 219.755C809.145 161.831 859.01 122.717 936.039 122.717C1012.47 122.717 1064.72 163.023 1066.51 227.813H995.751C995.155 199.752 972.165 179.147 937.827 179.147C904.689 179.147 884.392 195.867 884.392 217.363C884.392 236.173 899.912 247.816 926.185 253.49L982.917 265.132C1045.32 278.275 1074.27 305.74 1074.27 352.021C1074.27 413.529 1018.44 452.342 940.52 452.342C863.786 452.342 806.76 415.318 801.984 347.54Z" fill="white"></path>
<path d="M1095.04 0H1170.27V257.372H1171.17L1293.88 129.587H1384.35L1256.26 265.732L1392.11 444.87H1302.24L1198.94 309.917L1170.27 339.479V444.87H1095.04V0Z" fill="white"></path>
<path d="M1585.54 254.984C1580.77 209.902 1551.51 182.129 1507.91 182.129C1464.32 182.129 1435.36 209.902 1430.29 254.984H1585.54ZM1355.94 287.52C1355.94 191.688 1418.34 122.416 1506.72 122.416C1597.49 122.416 1657.8 189.591 1657.8 286.334V306.933H1429.69C1431.48 358.285 1460.74 392.623 1511.5 392.623C1549.41 392.623 1574.8 374.409 1583.45 347.534H1653.92C1641.97 409.343 1583.45 452.034 1509.71 452.034C1415.06 452.034 1355.94 383.064 1355.94 287.52Z" fill="white"></path>
<path d="M1817.99 190.194H1753.49V354.406C1753.49 376.794 1761.25 384.263 1785.74 384.263H1817.99V444.873H1772.6C1708.11 444.873 1678.26 419.491 1678.26 365.453V43.5918H1753.49V129.583H1817.99V190.194Z" fill="white"></path>
<path d="M2044.78 254.984C2040 209.902 2010.74 182.129 1967.14 182.129C1923.56 182.129 1894.6 209.902 1889.52 254.984H2044.78ZM1815.18 287.52C1815.18 191.688 1877.58 122.416 1965.95 122.416C2056.72 122.416 2117.03 189.591 2117.03 286.334V306.933H1888.92C1890.71 358.285 1919.97 392.623 1970.73 392.623C2008.64 392.623 2034.03 374.409 2042.69 347.534H2113.15C2101.21 409.343 2042.69 452.034 1968.94 452.034C1874.29 452.034 1815.18 383.064 1815.18 287.52Z" fill="white"></path>
<path d="M2352.45 254.984C2347.68 209.902 2318.42 182.129 2274.82 182.129C2231.23 182.129 2202.27 209.902 2197.19 254.984H2352.45ZM2122.85 287.52C2122.85 191.688 2185.25 122.416 2273.63 122.416C2364.4 122.416 2424.7 189.591 2424.7 286.334V306.933H2196.6C2198.39 358.285 2227.65 392.623 2278.4 392.623C2316.32 392.623 2341.71 374.409 2350.36 347.534H2420.83C2408.88 409.343 2350.36 452.034 2276.62 452.034C2181.97 452.034 2122.85 383.064 2122.85 287.52Z" fill="white"></path>
<path d="M2445.17 129.578H2517.72V181.828H2518.62C2530.26 145.695 2554.44 126.59 2595.05 126.59C2605.2 126.59 2613.56 127.186 2619.53 127.782V194.662C2613.86 193.765 2598.93 192.271 2584.01 192.271C2548.18 192.271 2520.4 217.056 2520.4 266.319V444.86H2445.17V129.578Z" fill="white"></path>
<path d="M2617.32 347.54H2691.67C2694.95 378.294 2717.05 395.911 2754.66 395.911C2791.09 395.911 2813.18 380.082 2813.18 357.695C2813.18 338.584 2796.76 327.537 2770.19 321.864L2716.45 310.817C2656.14 298.277 2624.49 267.523 2624.49 219.755C2624.49 161.831 2674.35 122.717 2751.38 122.717C2827.81 122.717 2880.06 163.023 2881.85 227.813H2811.09C2810.5 199.752 2787.51 179.147 2753.17 179.147C2720.03 179.147 2699.73 195.867 2699.73 217.363C2699.73 236.173 2715.25 247.816 2741.53 253.49L2798.26 265.132C2860.66 278.275 2889.61 305.74 2889.61 352.021C2889.61 413.529 2833.78 452.342 2755.86 452.342C2679.13 452.342 2622.1 415.318 2617.32 347.54Z" fill="white"></path>
</svg>